<svg xmlns="http://www.w3.org/2000/svg" xmlns:xlink="http://www.w3.org/1999/xlink" width="80" height="80" viewBox="0 0 80 80">
  <defs>
    <clipPath id="clip-baidu">
      <rect width="80" height="80"/>
    </clipPath>
  </defs>
  <g id="baidu" clip-path="url(#clip-baidu)">
    <g id="Group_24" data-name="Group 24" transform="translate(358.808 -403.439)">
      <rect id="Rectangle_12" data-name="Rectangle 12" width="80" height="80" rx="12" transform="translate(-358.808 403.439)" fill="#fff"/>
      <g id="Group_23" data-name="Group 23">
        <path id="Path_20" data-name="Path 20" d="M-330.009,444.382c3.8-.818,3.287-5.365,3.173-6.36-.186-1.534-1.989-4.211-4.437-4-3.08.276-3.53,4.725-3.53,4.725-.416,2.057,1,6.452,4.794,5.635Z" fill="#2319dc"/>
        <path id="Path_21" data-name="Path 21" d="M-325.968,452.291a3.206,3.206,0,0,0-.144,1.851,2.1,2.1,0,0,0,1.812,1.669h1.992v-4.872h-2.134a2.345,2.345,0,0,0-1.526,1.352Z" fill="#2319dc"/>
        <path id="Path_22" data-name="Path 22" d="M-322.946,436.755c2.1,0,3.8-2.419,3.8-5.41s-1.7-5.406-3.8-5.406-3.8,2.418-3.8,5.406S-325.045,436.755-322.946,436.755Z" fill="#2319dc"/>
        <path id="Path_23" data-name="Path 23" d="M-313.895,437.112c2.81.365,4.616-2.633,4.974-4.906a5.108,5.108,0,0,0-3.435-5.357c-1.992-.456-4.481,2.735-4.708,4.816C-317.333,434.209-316.7,436.751-313.895,437.112Z" fill="#2319dc"/>
        <path id="Path_24" data-name="Path 24" d="M-307.011,450.469h0a38.674,38.674,0,0,1-6.882-7c-3.44-5.359-8.326-3.178-9.96-.453a22.7,22.7,0,0,1-4.523,4.9c-.365.449-5.25,3.087-4.167,7.9s4.894,4.722,4.894,4.722a21.366,21.366,0,0,0,6.063-.452,12.776,12.776,0,0,1,6.061.18s7.608,2.548,9.691-2.357S-307.011,450.469-307.011,450.469Zm-13.018,7.3h-4.947a4.341,4.341,0,0,1-3.1-2.132,5.656,5.656,0,0,1-.39-3.418,4.339,4.339,0,0,1,3.556-3.2h2.633v-3.236l2.243.033Zm3.52-.033c-2.206-.57-2.31-2.137-2.31-2.137v-6.3l2.31-.037v5.658c.14.6.89.712.89.712h2.345V449.3h2.457v8.432Z" fill="#2319dc"/>
        <path id="Path_25" data-name="Path 25" d="M-302.758,440.928c0-1.088-.9-4.36-4.253-4.36s-3.8,3.089-3.8,5.273c0,2.084.176,4.994,4.344,4.9s3.711-4.721,3.711-5.814Z" fill="#2319dc"/>
      </g>
    </g>
  </g>
</svg>
