<svg width="23" height="23" viewBox="0 0 23 23" fill="none" xmlns="http://www.w3.org/2000/svg">
<path d="M11.5 0C12.3946 5.43745e-05 13.2585 0.325914 13.9303 0.916656L14.1074 1.08343L14.9102 1.88622C15.1305 2.1051 15.4182 2.24328 15.7268 2.27841L15.8821 2.28761H17.0322C17.9721 2.28756 18.8765 2.64711 19.5598 3.29253C20.243 3.93795 20.6535 4.82033 20.707 5.75871L20.7127 5.96804V7.11817C20.7127 7.42871 20.8185 7.73119 21.0094 7.97272L21.113 8.08773L21.9146 8.89053C22.5791 9.55122 22.9665 10.4405 22.9979 11.377C23.0293 12.3135 22.7024 13.2267 22.0837 13.9304L21.9169 14.1075L21.1141 14.9103C20.8952 15.1306 20.757 15.4183 20.7219 15.7269L20.7127 15.8822V17.0323C20.7128 17.9722 20.3532 18.8765 19.7078 19.5598C19.0623 20.2431 18.18 20.6535 17.2416 20.707L17.0322 20.7127H15.8821C15.572 20.7128 15.2709 20.8174 15.0275 21.0095L14.9125 21.113L14.1097 21.9146C13.449 22.5791 12.5597 22.9665 11.6232 22.9979C10.6867 23.0293 9.77348 22.7024 9.06973 22.0837L8.89261 21.9169L8.0898 21.1141C7.86948 20.8953 7.58177 20.7571 7.2732 20.7219L7.11793 20.7127H5.96778C5.02785 20.7128 4.12353 20.3532 3.44024 19.7078C2.75696 19.0624 2.3465 18.18 2.29305 17.2416L2.2873 17.0323V15.8822C2.28719 15.5721 2.18266 15.2711 1.99056 15.0276L1.88704 14.9126L1.08539 14.1098C0.420926 13.4491 0.0334876 12.5599 0.00207113 11.6234C-0.0293453 10.6869 0.297626 9.77368 0.916317 9.06995L1.08309 8.89283L1.88589 8.09003C2.10478 7.86971 2.24296 7.58201 2.27809 7.27344L2.2873 7.11817V5.96804L2.29305 5.75871C2.3444 4.85637 2.72599 4.00447 3.36509 3.36539C4.00418 2.7263 4.85609 2.34472 5.75845 2.29336L5.96778 2.28761H7.11793C7.42803 2.28751 7.72906 2.18298 7.97249 1.99088L8.0875 1.88737L8.89031 1.08573C9.23229 0.741708 9.6389 0.468685 10.0868 0.282357C10.5346 0.0960285 11.0149 7.02456e-05 11.5 0ZM15.7521 8.37527C15.5364 8.15965 15.2439 8.03852 14.9389 8.03852C14.634 8.03852 14.3415 8.15965 14.1258 8.37527L10.3383 12.1615L8.8512 10.6755L8.74309 10.5801C8.51192 10.4013 8.22138 10.3173 7.93048 10.345C7.63958 10.3727 7.37013 10.5101 7.17687 10.7293C6.98361 10.9484 6.88102 11.233 6.88994 11.525C6.89885 11.8171 7.01861 12.0948 7.22489 12.3018L9.52519 14.6021L9.63331 14.6975C9.8546 14.8692 10.1309 14.9542 10.4104 14.9366C10.69 14.9191 10.9535 14.8001 11.1515 14.6021L15.7521 10.0016L15.8476 9.89344C16.0192 9.67215 16.1042 9.39583 16.0867 9.11632C16.0691 8.83681 15.9501 8.57331 15.7521 8.37527Z" fill="#5D679C"/>
</svg>
