<svg xmlns="http://www.w3.org/2000/svg" xmlns:xlink="http://www.w3.org/1999/xlink" width="80" height="80" viewBox="0 0 80 80">
  <defs>
    <clipPath id="clip-google">
      <rect width="80" height="80"/>
    </clipPath>
  </defs>
  <g id="google" clip-path="url(#clip-google)">
    <g id="Group_20" data-name="Group 20" transform="translate(661.594 -403.439)">
      <rect id="Rectangle_9" data-name="Rectangle 9" width="80" height="80" rx="12" transform="translate(-661.594 403.439)" fill="#fff"/>
      <g id="Group_19" data-name="Group 19">
        <path id="Path_15" data-name="Path 15" d="M-631.337,447.09l-1.218,4.548-4.453.094a17.417,17.417,0,0,1-2.086-8.293,17.412,17.412,0,0,1,1.957-8.048h0l3.964.727,1.737,3.94a10.417,10.417,0,0,0-.562,3.381,10.377,10.377,0,0,0,.66,3.651Z" fill="#fbbb00"/>
        <path id="Path_16" data-name="Path 16" d="M-604.4,440.17a17.513,17.513,0,0,1,.3,3.269,17.528,17.528,0,0,1-.382,3.654,17.5,17.5,0,0,1-6.162,9.993h0l-4.993-.255-.707-4.411a10.43,10.43,0,0,0,4.488-5.326h-9.358V440.17Z" fill="#518ef8"/>
        <path id="Path_17" data-name="Path 17" d="M-610.639,457.085h0a17.425,17.425,0,0,1-10.956,3.853,17.5,17.5,0,0,1-15.414-9.207l5.671-4.642a10.406,10.406,0,0,0,9.743,6.752,10.343,10.343,0,0,0,5.255-1.423Z" fill="#28b446"/>
        <path id="Path_18" data-name="Path 18" d="M-610.423,429.968l-5.67,4.641a10.345,10.345,0,0,0-5.5-1.573,10.408,10.408,0,0,0-9.841,7.022l-5.7-4.667h0a17.5,17.5,0,0,1,15.543-9.452,17.426,17.426,0,0,1,11.171,4.029Z" fill="#f14336"/>
      </g>
    </g>
  </g>
</svg>
