<svg width="246" height="140" viewBox="0 0 246 140" fill="none" xmlns="http://www.w3.org/2000/svg">
<path d="M200.286 43.8251L189.037 107.666C188.655 109.877 186.515 111.336 184.305 110.939L138.574 102.863C136.335 102.467 134.848 100.37 135.244 98.1596L146.493 34.3184C146.876 32.1223 149.001 30.6488 151.225 31.0455L196.956 39.1213C199.181 39.518 200.682 41.6291 200.286 43.8251Z" fill="#E3E6F9"/>
<path d="M169.005 97.7771L167.22 107.921L138.574 102.863C136.335 102.467 134.848 100.37 135.244 98.1596L138.46 79.897L144.411 74.2864C146.153 72.6429 148.93 72.8555 150.446 74.7115L169.019 97.7771H169.005Z" fill="#CDD3F4"/>
<path d="M163.863 54.8479L159.825 54.1395L160.533 50.1441C160.661 49.4073 160.165 48.7131 159.428 48.5714C158.691 48.4297 157.983 48.9256 157.856 49.6624L157.147 53.6578L153.109 52.9493C152.373 52.8218 151.664 53.3036 151.537 54.0403C151.409 54.777 151.905 55.4713 152.642 55.6129L156.68 56.3213L155.971 60.3167C155.844 61.0535 156.34 61.7477 157.076 61.8894C157.813 62.0311 158.521 61.5352 158.649 60.7984L159.357 56.8031L163.395 57.5115C164.132 57.639 164.84 57.1573 164.968 56.4205C165.095 55.6838 164.6 54.9895 163.863 54.8479Z" fill="#B0B9EE"/>
<path d="M192.069 90.4663L189.037 107.666C188.655 109.877 186.515 111.336 184.305 110.939L138.574 102.863C136.335 102.467 134.848 100.37 135.244 98.1596L135.414 97.2103L167.475 66.9615C169.217 65.3181 171.994 65.5306 173.51 67.3866L192.083 90.4522L192.069 90.4663Z" fill="#B0B9EE"/>
<path d="M89.8813 34.3609L101.201 98.1879C101.598 100.398 100.096 102.495 97.8716 102.892L52.1259 110.911C49.8875 111.308 47.7766 109.834 47.3799 107.624L36.0604 43.7968C35.6779 41.6007 37.1512 39.4897 39.3897 39.093L85.1353 31.0739C87.3596 30.6913 89.4846 32.1648 89.8813 34.3609Z" fill="#E3E6F9"/>
<path d="M78.9869 95.7369L80.7861 105.881L52.126 110.897C49.8876 111.293 47.7767 109.82 47.38 107.61L44.1357 89.3471L47.805 82.0363C48.8817 79.897 51.5593 79.1461 53.6136 80.3787L78.9727 95.7227L78.9869 95.7369Z" fill="#CDD3F4"/>
<path d="M59.4509 57.1431L55.4131 57.8515L54.7046 53.8561C54.5771 53.1194 53.8687 52.6376 53.1178 52.7652C52.3669 52.8927 51.871 53.6011 52.0127 54.3378L52.7211 58.3332L48.6832 59.0416C47.9465 59.1691 47.4364 59.8775 47.5781 60.6143C47.7198 61.351 48.414 61.8327 49.1649 61.7052L53.2028 60.9968L53.9112 64.9922C54.0388 65.7289 54.7472 66.2106 55.4981 66.0831C56.249 65.9556 56.7448 65.2472 56.6032 64.5105L55.8948 60.5151L59.9327 59.8067C60.6694 59.6792 61.1794 58.9708 61.0378 58.234C60.8961 57.4973 60.2019 57.0156 59.4509 57.1431Z" fill="#B0B9EE"/>
<path d="M98.155 81.0021L101.201 98.2021C101.598 100.412 100.096 102.509 97.8716 102.906L52.126 110.925C49.8875 111.322 47.7766 109.848 47.38 107.638L47.21 106.689L66.9731 67.3299C68.0498 65.1905 70.7274 64.4396 72.7816 65.6723L98.1408 81.0163L98.155 81.0021Z" fill="#B0B9EE"/>
<path d="M154.625 14.4689V101.999C154.625 105.031 152.16 107.468 149.157 107.468H87.2322C84.2146 107.468 81.7637 105.031 81.7637 101.999V14.4689C81.7637 11.4653 84.2004 9.00006 87.2322 9.00006H149.157C152.16 9.00006 154.625 11.4653 154.625 14.4689Z" fill="#DAE1FF"/>
<path d="M126.022 93.555V107.468H87.2322C84.2146 107.468 81.7637 105.031 81.7637 101.999V76.9642L88.2806 68.1092C90.1931 65.5164 93.8907 65.1339 96.2992 67.2591L126.022 93.5691V93.555Z" fill="#92A6FF"/>
<path d="M109.362 37.6762H103.893V32.2073C103.893 31.2014 103.086 30.3796 102.066 30.3796C101.046 30.3796 100.238 31.2014 100.238 32.2073V37.6762H94.7691C93.7632 37.6762 92.9414 38.4979 92.9414 39.5039C92.9414 40.5098 93.749 41.3315 94.7691 41.3315H100.238V46.8004C100.238 47.8063 101.046 48.6281 102.066 48.6281C103.086 48.6281 103.893 47.8063 103.893 46.8004V41.3315H109.362C110.368 41.3315 111.19 40.5098 111.19 39.5039C111.19 38.4979 110.382 37.6762 109.362 37.6762Z" fill="#2B50ED"/>
<path d="M154.625 78.4235V101.999C154.625 105.031 152.16 107.468 149.157 107.468H87.2322C84.2146 107.468 81.7637 105.031 81.7637 101.999V100.71L116.87 52.9777C118.782 50.3849 122.48 50.0024 124.888 52.1276L154.611 78.4377L154.625 78.4235Z" fill="#2B50ED"/>
<path d="M13 100C7.49 100 3 95.51 3 90C3 84.49 7.49 80 13 80C18.51 80 23 84.49 23 90C23 95.51 18.51 100 13 100ZM13 83C9.14 83 6 86.14 6 90C6 93.86 9.14 97 13 97C16.86 97 20 93.86 20 90C20 86.14 16.86 83 13 83Z" fill="#EF9926"/>
<path d="M240.07 41.5699C238.14 41.5699 236.57 39.9999 236.57 38.0699C236.57 36.1399 238.14 34.5699 240.07 34.5699C242 34.5699 243.57 36.1399 243.57 38.0699C243.57 39.9999 242 41.5699 240.07 41.5699ZM240.07 35.5699C238.69 35.5699 237.57 36.6899 237.57 38.0699C237.57 39.4499 238.69 40.5699 240.07 40.5699C241.45 40.5699 242.57 39.4499 242.57 38.0699C242.57 36.6899 241.45 35.5699 240.07 35.5699Z" fill="#FFEB97"/>
<path d="M68.1 139.2C65.84 139.2 64 137.36 64 135.1C64 132.84 65.84 131 68.1 131C70.36 131 72.2 132.84 72.2 135.1C72.2 137.36 70.36 139.2 68.1 139.2ZM68.1 132.2C66.5 132.2 65.2 133.5 65.2 135.1C65.2 136.7 66.5 138 68.1 138C69.7 138 71 136.7 71 135.1C71 133.5 69.7 132.2 68.1 132.2Z" fill="#2B50ED"/>
<path d="M209.5 91C211.985 91 214 88.9853 214 86.5C214 84.0147 211.985 82 209.5 82C207.015 82 205 84.0147 205 86.5C205 88.9853 207.015 91 209.5 91Z" fill="#FFAE1F"/>
<path d="M31.5 20.95C33.433 20.95 35 19.3829 35 17.45C35 15.517 33.433 13.95 31.5 13.95C29.567 13.95 28 15.517 28 17.45C28 19.3829 29.567 20.95 31.5 20.95Z" fill="#FFAE1F"/>
<path d="M167.26 10.85C169.469 10.85 171.26 9.05911 171.26 6.84998C171.26 4.64084 169.469 2.84998 167.26 2.84998C165.051 2.84998 163.26 4.64084 163.26 6.84998C163.26 9.05911 165.051 10.85 167.26 10.85Z" fill="#FFD522"/>
<path d="M242.71 118.23C244.367 118.23 245.71 116.887 245.71 115.23C245.71 113.573 244.367 112.23 242.71 112.23C241.053 112.23 239.71 113.573 239.71 115.23C239.71 116.887 241.053 118.23 242.71 118.23Z" fill="#FFD522"/>
<path d="M22.5 58.95C24.9853 58.95 27 56.9352 27 54.45C27 51.9647 24.9853 49.95 22.5 49.95C20.0147 49.95 18 51.9647 18 54.45C18 56.9352 20.0147 58.95 22.5 58.95Z" fill="#2B50ED"/>
<path d="M112.1 6.28992C113.481 6.28992 114.6 5.17063 114.6 3.78992C114.6 2.40921 113.481 1.28992 112.1 1.28992C110.719 1.28992 109.6 2.40921 109.6 3.78992C109.6 5.17063 110.719 6.28992 112.1 6.28992Z" fill="#2B50ED"/>
<path d="M209.052 35L208 23.4837L219.659 23.4681L216.076 11.0498L229.468 10.2955L225.821 1.12753L228.772 0L234 13.1493L220.197 13.9347L223.844 26.5785L211.465 26.5941L212.2 34.7201L209.052 35Z" fill="#2B50ED"/>
<path d="M6.35184 29.2599C-2.42816 23.4399 0.411841 11.46 0.531841 10.95L3.44184 11.6699C3.41184 11.7699 1.00184 22.1199 8.00184 26.7599L6.34184 29.2599H6.35184Z" fill="#FFAE1F"/>
<path d="M25.81 119.235L23 118.195C23.04 118.095 27.02 107.805 39.2 109.115L38.88 112.095C28.99 111.035 25.85 119.155 25.82 119.235H25.81Z" fill="#FFAE1F"/>
<path d="M170.73 135.51L167.95 134.39C169.21 131.26 169.33 128.55 168.29 126.33C166.73 122.99 163.11 121.77 163.07 121.76L164 118.91C164.2 118.97 168.91 120.55 171.01 125.07C172.41 128.08 172.32 131.59 170.73 135.52V135.51Z" fill="#2B50ED"/>
</svg>
